<svg xmlns="http://www.w3.org/2000/svg" xmlns:xlink="http://www.w3.org/1999/xlink" width="500" zoomAndPan="magnify" viewBox="0 0 375 187.499995" height="250" preserveAspectRatio="xMidYMid meet" version="1.0"><defs><g/><clipPath id="52cef128c5"><path d="M 136 73 L 374.398438 73 L 374.398438 104 L 136 104 Z M 136 73 " clip-rule="nonzero"/></clipPath><clipPath id="e0329bebfc"><path d="M 136 80 L 374.398438 80 L 374.398438 111 L 136 111 Z M 136 80 " clip-rule="nonzero"/></clipPath><clipPath id="f1b74ebe73"><path d="M 136 89 L 374.398438 89 L 374.398438 120 L 136 120 Z M 136 89 " clip-rule="nonzero"/></clipPath><clipPath id="076a5f051e"><path d="M 136 96 L 374.398438 96 L 374.398438 127 L 136 127 Z M 136 96 " clip-rule="nonzero"/></clipPath><clipPath id="1ea0d36add"><path d="M 168 53.066406 L 186 53.066406 L 186 85 L 168 85 Z M 168 53.066406 " clip-rule="nonzero"/></clipPath></defs><g fill="#1b1b1b" fill-opacity="1"><g transform="translate(27.74243, 62.136603)"><g><path d="M 9.71875 0 C 8.25 0 7.117188 -0.390625 6.328125 -1.171875 C 5.546875 -1.953125 5.15625 -3.082031 5.15625 -4.5625 L 5.15625 -42.71875 C 5.15625 -44.195312 5.546875 -45.328125 6.328125 -46.109375 C 7.117188 -46.890625 8.25 -47.28125 9.71875 -47.28125 L 25.8125 -47.28125 C 29.125 -47.28125 31.941406 -46.785156 34.265625 -45.796875 C 36.585938 -44.816406 38.363281 -43.410156 39.59375 -41.578125 C 40.820312 -39.742188 41.4375 -37.550781 41.4375 -35 C 41.4375 -32.144531 40.609375 -29.734375 38.953125 -27.765625 C 37.304688 -25.796875 35.050781 -24.476562 32.1875 -23.8125 L 32.1875 -24.8125 C 35.5 -24.320312 38.070312 -23.070312 39.90625 -21.0625 C 41.738281 -19.050781 42.65625 -16.4375 42.65625 -13.21875 C 42.65625 -9.007812 41.234375 -5.753906 38.390625 -3.453125 C 35.554688 -1.148438 31.613281 0 26.5625 0 Z M 13.40625 -6.5 L 25.484375 -6.5 C 28.523438 -6.5 30.757812 -7.09375 32.1875 -8.28125 C 33.625 -9.46875 34.34375 -11.242188 34.34375 -13.609375 C 34.34375 -16.023438 33.625 -17.8125 32.1875 -18.96875 C 30.757812 -20.132812 28.523438 -20.71875 25.484375 -20.71875 L 13.40625 -20.71875 Z M 13.40625 -27.234375 L 24.34375 -27.234375 C 27.289062 -27.234375 29.488281 -27.800781 30.9375 -28.9375 C 32.394531 -30.070312 33.125 -31.757812 33.125 -34 C 33.125 -36.238281 32.394531 -37.925781 30.9375 -39.0625 C 29.488281 -40.207031 27.289062 -40.78125 24.34375 -40.78125 L 13.40625 -40.78125 Z M 13.40625 -27.234375 "/></g></g></g><g fill="#1b1b1b" fill-opacity="1"><g transform="translate(73.873968, 62.136603)"><g><path d="M 8.65625 0.53125 C 7.269531 0.53125 6.207031 0.164062 5.46875 -0.5625 C 4.726562 -1.300781 4.359375 -2.363281 4.359375 -3.75 L 4.359375 -29.109375 C 4.359375 -30.492188 4.710938 -31.539062 5.421875 -32.25 C 6.140625 -32.96875 7.148438 -33.328125 8.453125 -33.328125 C 9.742188 -33.328125 10.75 -32.96875 11.46875 -32.25 C 12.1875 -31.539062 12.546875 -30.492188 12.546875 -29.109375 L 12.546875 -24.875 L 11.875 -24.875 C 12.5 -27.5625 13.726562 -29.597656 15.5625 -30.984375 C 17.394531 -32.367188 19.832031 -33.195312 22.875 -33.46875 C 23.8125 -33.550781 24.554688 -33.3125 25.109375 -32.75 C 25.671875 -32.195312 26 -31.335938 26.09375 -30.171875 C 26.175781 -29.054688 25.914062 -28.148438 25.3125 -27.453125 C 24.707031 -26.765625 23.800781 -26.351562 22.59375 -26.21875 L 21.125 -26.09375 C 18.394531 -25.820312 16.335938 -24.976562 14.953125 -23.5625 C 13.566406 -22.15625 12.875 -20.179688 12.875 -17.640625 L 12.875 -3.75 C 12.875 -2.363281 12.515625 -1.300781 11.796875 -0.5625 C 11.085938 0.164062 10.039062 0.53125 8.65625 0.53125 Z M 8.65625 0.53125 "/></g></g></g><g fill="#1b1b1b" fill-opacity="1"><g transform="translate(100.158222, 62.136603)"><g><path d="M 16.234375 0.671875 C 13.503906 0.671875 11.242188 0.171875 9.453125 -0.828125 C 7.660156 -1.835938 6.328125 -3.347656 5.453125 -5.359375 C 4.585938 -7.378906 4.15625 -9.882812 4.15625 -12.875 L 4.15625 -29.109375 C 4.15625 -30.535156 4.507812 -31.59375 5.21875 -32.28125 C 5.9375 -32.976562 6.96875 -33.328125 8.3125 -33.328125 C 9.65625 -33.328125 10.695312 -32.976562 11.4375 -32.28125 C 12.175781 -31.59375 12.546875 -30.535156 12.546875 -29.109375 L 12.546875 -12.734375 C 12.546875 -10.410156 13.015625 -8.691406 13.953125 -7.578125 C 14.890625 -6.460938 16.382812 -5.90625 18.4375 -5.90625 C 20.675781 -5.90625 22.507812 -6.675781 23.9375 -8.21875 C 25.375 -9.757812 26.09375 -11.800781 26.09375 -14.34375 L 26.09375 -29.109375 C 26.09375 -30.535156 26.445312 -31.59375 27.15625 -32.28125 C 27.875 -32.976562 28.90625 -33.328125 30.25 -33.328125 C 31.582031 -33.328125 32.617188 -32.976562 33.359375 -32.28125 C 34.097656 -31.59375 34.46875 -30.535156 34.46875 -29.109375 L 34.46875 -3.75 C 34.46875 -0.894531 33.101562 0.53125 30.375 0.53125 C 29.082031 0.53125 28.078125 0.164062 27.359375 -0.5625 C 26.640625 -1.300781 26.28125 -2.363281 26.28125 -3.75 L 26.28125 -8.859375 L 27.234375 -6.84375 C 26.285156 -4.425781 24.863281 -2.566406 22.96875 -1.265625 C 21.070312 0.0234375 18.828125 0.671875 16.234375 0.671875 Z M 16.234375 0.671875 "/></g></g></g><g fill="#1b1b1b" fill-opacity="1"><g transform="translate(138.981129, 62.136603)"><g><path d="M 8.515625 0.53125 C 7.171875 0.53125 6.140625 0.164062 5.421875 -0.5625 C 4.710938 -1.300781 4.359375 -2.363281 4.359375 -3.75 L 4.359375 -29.109375 C 4.359375 -30.492188 4.710938 -31.539062 5.421875 -32.25 C 6.140625 -32.96875 7.148438 -33.328125 8.453125 -33.328125 C 9.742188 -33.328125 10.75 -32.96875 11.46875 -32.25 C 12.1875 -31.539062 12.546875 -30.492188 12.546875 -29.109375 L 12.546875 -24.546875 L 11.796875 -26.21875 C 12.785156 -28.59375 14.316406 -30.394531 16.390625 -31.625 C 18.472656 -32.851562 20.832031 -33.46875 23.46875 -33.46875 C 26.101562 -33.46875 28.269531 -32.972656 29.96875 -31.984375 C 31.675781 -31.003906 32.953125 -29.519531 33.796875 -27.53125 C 34.648438 -25.539062 35.078125 -23.023438 35.078125 -19.984375 L 35.078125 -3.75 C 35.078125 -2.363281 34.71875 -1.300781 34 -0.5625 C 33.28125 0.164062 32.253906 0.53125 30.921875 0.53125 C 29.578125 0.53125 28.535156 0.164062 27.796875 -0.5625 C 27.054688 -1.300781 26.6875 -2.363281 26.6875 -3.75 L 26.6875 -19.578125 C 26.6875 -22.128906 26.207031 -23.984375 25.25 -25.140625 C 24.289062 -26.304688 22.804688 -26.890625 20.796875 -26.890625 C 18.328125 -26.890625 16.363281 -26.117188 14.90625 -24.578125 C 13.457031 -23.035156 12.734375 -20.988281 12.734375 -18.4375 L 12.734375 -3.75 C 12.734375 -0.894531 11.328125 0.53125 8.515625 0.53125 Z M 8.515625 0.53125 "/></g></g></g><g fill="#1b1b1b" fill-opacity="1"><g transform="translate(178.206345, 62.136603)"><g><path d="M 8.515625 0.53125 C 7.171875 0.53125 6.140625 0.164062 5.421875 -0.5625 C 4.710938 -1.300781 4.359375 -2.363281 4.359375 -3.75 L 4.359375 -29.109375 C 4.359375 -30.492188 4.710938 -31.539062 5.421875 -32.25 C 6.140625 -32.96875 7.148438 -33.328125 8.453125 -33.328125 C 9.742188 -33.328125 10.75 -32.96875 11.46875 -32.25 C 12.1875 -31.539062 12.546875 -30.492188 12.546875 -29.109375 L 12.546875 -24.546875 L 11.796875 -26.21875 C 12.785156 -28.59375 14.316406 -30.394531 16.390625 -31.625 C 18.472656 -32.851562 20.832031 -33.46875 23.46875 -33.46875 C 26.101562 -33.46875 28.269531 -32.972656 29.96875 -31.984375 C 31.675781 -31.003906 32.953125 -29.519531 33.796875 -27.53125 C 34.648438 -25.539062 35.078125 -23.023438 35.078125 -19.984375 L 35.078125 -3.75 C 35.078125 -2.363281 34.71875 -1.300781 34 -0.5625 C 33.28125 0.164062 32.253906 0.53125 30.921875 0.53125 C 29.578125 0.53125 28.535156 0.164062 27.796875 -0.5625 C 27.054688 -1.300781 26.6875 -2.363281 26.6875 -3.75 L 26.6875 -19.578125 C 26.6875 -22.128906 26.207031 -23.984375 25.25 -25.140625 C 24.289062 -26.304688 22.804688 -26.890625 20.796875 -26.890625 C 18.328125 -26.890625 16.363281 -26.117188 14.90625 -24.578125 C 13.457031 -23.035156 12.734375 -20.988281 12.734375 -18.4375 L 12.734375 -3.75 C 12.734375 -0.894531 11.328125 0.53125 8.515625 0.53125 Z M 8.515625 0.53125 "/></g></g></g><g fill="#1b1b1b" fill-opacity="1"><g transform="translate(217.43156, 62.136603)"><g><path d="M 20.515625 0.671875 C 16.804688 0.671875 13.609375 -0.0195312 10.921875 -1.40625 C 8.242188 -2.789062 6.175781 -4.753906 4.71875 -7.296875 C 3.269531 -9.847656 2.546875 -12.867188 2.546875 -16.359375 C 2.546875 -19.753906 3.25 -22.726562 4.65625 -25.28125 C 6.0625 -27.832031 8.003906 -29.832031 10.484375 -31.28125 C 12.972656 -32.738281 15.804688 -33.46875 18.984375 -33.46875 C 21.304688 -33.46875 23.394531 -33.085938 25.25 -32.328125 C 27.101562 -31.566406 28.6875 -30.46875 30 -29.03125 C 31.320312 -27.601562 32.328125 -25.875 33.015625 -23.84375 C 33.710938 -21.8125 34.0625 -19.519531 34.0625 -16.96875 C 34.0625 -16.164062 33.78125 -15.550781 33.21875 -15.125 C 32.664062 -14.695312 31.875 -14.484375 30.84375 -14.484375 L 9.328125 -14.484375 L 9.328125 -19.3125 L 28.171875 -19.3125 L 27.09375 -18.3125 C 27.09375 -20.363281 26.789062 -22.082031 26.1875 -23.46875 C 25.582031 -24.851562 24.707031 -25.914062 23.5625 -26.65625 C 22.425781 -27.394531 21.007812 -27.765625 19.3125 -27.765625 C 17.4375 -27.765625 15.835938 -27.328125 14.515625 -26.453125 C 13.203125 -25.585938 12.195312 -24.359375 11.5 -22.765625 C 10.8125 -21.179688 10.46875 -19.289062 10.46875 -17.09375 L 10.46875 -16.625 C 10.46875 -12.957031 11.328125 -10.21875 13.046875 -8.40625 C 14.765625 -6.601562 17.300781 -5.703125 20.65625 -5.703125 C 21.820312 -5.703125 23.128906 -5.847656 24.578125 -6.140625 C 26.035156 -6.429688 27.410156 -6.929688 28.703125 -7.640625 C 29.640625 -8.179688 30.460938 -8.414062 31.171875 -8.34375 C 31.890625 -8.28125 32.460938 -8.023438 32.890625 -7.578125 C 33.316406 -7.128906 33.570312 -6.582031 33.65625 -5.9375 C 33.75 -5.289062 33.628906 -4.628906 33.296875 -3.953125 C 32.960938 -3.285156 32.394531 -2.707031 31.59375 -2.21875 C 30.019531 -1.226562 28.21875 -0.5 26.1875 -0.03125 C 24.15625 0.4375 22.265625 0.671875 20.515625 0.671875 Z M 20.515625 0.671875 "/></g></g></g><g fill="#1b1b1b" fill-opacity="1"><g transform="translate(253.77356, 62.136603)"><g><path d="M 8.65625 0.53125 C 7.269531 0.53125 6.207031 0.164062 5.46875 -0.5625 C 4.726562 -1.300781 4.359375 -2.363281 4.359375 -3.75 L 4.359375 -29.109375 C 4.359375 -30.492188 4.710938 -31.539062 5.421875 -32.25 C 6.140625 -32.96875 7.148438 -33.328125 8.453125 -33.328125 C 9.742188 -33.328125 10.75 -32.96875 11.46875 -32.25 C 12.1875 -31.539062 12.546875 -30.492188 12.546875 -29.109375 L 12.546875 -24.875 L 11.875 -24.875 C 12.5 -27.5625 13.726562 -29.597656 15.5625 -30.984375 C 17.394531 -32.367188 19.832031 -33.195312 22.875 -33.46875 C 23.8125 -33.550781 24.554688 -33.3125 25.109375 -32.75 C 25.671875 -32.195312 26 -31.335938 26.09375 -30.171875 C 26.175781 -29.054688 25.914062 -28.148438 25.3125 -27.453125 C 24.707031 -26.765625 23.800781 -26.351562 22.59375 -26.21875 L 21.125 -26.09375 C 18.394531 -25.820312 16.335938 -24.976562 14.953125 -23.5625 C 13.566406 -22.15625 12.875 -20.179688 12.875 -17.640625 L 12.875 -3.75 C 12.875 -2.363281 12.515625 -1.300781 11.796875 -0.5625 C 11.085938 0.164062 10.039062 0.53125 8.65625 0.53125 Z M 8.65625 0.53125 "/></g></g></g><g fill="#1b1b1b" fill-opacity="1"><g transform="translate(280.057815, 62.136603)"><g><path d="M 8.1875 -27.296875 C 7.375 -27.296875 6.664062 -27.582031 6.0625 -28.15625 C 5.457031 -28.738281 5.113281 -29.523438 5.03125 -30.515625 L 3.75 -42.921875 C 3.613281 -44.304688 3.972656 -45.46875 4.828125 -46.40625 C 5.679688 -47.34375 6.800781 -47.8125 8.1875 -47.8125 C 9.070312 -47.8125 9.863281 -47.597656 10.5625 -47.171875 C 11.257812 -46.753906 11.785156 -46.175781 12.140625 -45.4375 C 12.492188 -44.695312 12.628906 -43.859375 12.546875 -42.921875 L 11.265625 -30.515625 C 11.171875 -29.523438 10.84375 -28.738281 10.28125 -28.15625 C 9.726562 -27.582031 9.03125 -27.296875 8.1875 -27.296875 Z M 8.1875 -27.296875 "/></g></g></g><g fill="#1b1b1b" fill-opacity="1"><g transform="translate(296.351377, 62.136603)"><g><path d="M 16.359375 0.671875 C 14.441406 0.671875 12.410156 0.46875 10.265625 0.0625 C 8.117188 -0.332031 6.195312 -1.023438 4.5 -2.015625 C 3.78125 -2.460938 3.273438 -2.988281 2.984375 -3.59375 C 2.691406 -4.195312 2.578125 -4.796875 2.640625 -5.390625 C 2.710938 -5.992188 2.9375 -6.519531 3.3125 -6.96875 C 3.695312 -7.414062 4.191406 -7.707031 4.796875 -7.84375 C 5.398438 -7.976562 6.054688 -7.867188 6.765625 -7.515625 C 8.554688 -6.660156 10.234375 -6.066406 11.796875 -5.734375 C 13.367188 -5.398438 14.914062 -5.234375 16.4375 -5.234375 C 18.582031 -5.234375 20.175781 -5.597656 21.21875 -6.328125 C 22.269531 -7.066406 22.796875 -8.039062 22.796875 -9.25 C 22.796875 -10.28125 22.445312 -11.070312 21.75 -11.625 C 21.0625 -12.1875 20.023438 -12.601562 18.640625 -12.875 L 11.9375 -14.15625 C 9.164062 -14.6875 7.050781 -15.703125 5.59375 -17.203125 C 4.144531 -18.703125 3.421875 -20.632812 3.421875 -23 C 3.421875 -25.144531 4.007812 -27 5.1875 -28.5625 C 6.375 -30.132812 8.019531 -31.34375 10.125 -32.1875 C 12.226562 -33.039062 14.644531 -33.46875 17.375 -33.46875 C 19.332031 -33.46875 21.171875 -33.253906 22.890625 -32.828125 C 24.617188 -32.398438 26.285156 -31.738281 27.890625 -30.84375 C 28.566406 -30.488281 29.023438 -30.019531 29.265625 -29.4375 C 29.515625 -28.851562 29.570312 -28.257812 29.4375 -27.65625 C 29.300781 -27.0625 29.03125 -26.523438 28.625 -26.046875 C 28.226562 -25.578125 27.726562 -25.285156 27.125 -25.171875 C 26.519531 -25.066406 25.835938 -25.191406 25.078125 -25.546875 C 23.691406 -26.265625 22.363281 -26.78125 21.09375 -27.09375 C 19.820312 -27.40625 18.601562 -27.5625 17.4375 -27.5625 C 15.25 -27.5625 13.628906 -27.179688 12.578125 -26.421875 C 11.523438 -25.660156 11 -24.65625 11 -23.40625 C 11 -22.46875 11.3125 -21.6875 11.9375 -21.0625 C 12.5625 -20.4375 13.523438 -20.007812 14.828125 -19.78125 L 21.53125 -18.515625 C 24.4375 -17.972656 26.632812 -16.984375 28.125 -15.546875 C 29.625 -14.117188 30.375 -12.203125 30.375 -9.796875 C 30.375 -6.523438 29.097656 -3.960938 26.546875 -2.109375 C 24.003906 -0.253906 20.609375 0.671875 16.359375 0.671875 Z M 16.359375 0.671875 "/></g></g></g><g fill="#1b1b1b" fill-opacity="1"><g transform="translate(329.083364, 62.136603)"><g/></g></g><g fill="#1b1b1b" fill-opacity="1"><g transform="translate(35.456234, 169.101356)"><g><path d="M 9.59375 0.53125 C 8.207031 0.53125 7.117188 0.140625 6.328125 -0.640625 C 5.546875 -1.421875 5.15625 -2.550781 5.15625 -4.03125 L 5.15625 -42.71875 C 5.15625 -44.195312 5.546875 -45.328125 6.328125 -46.109375 C 7.117188 -46.890625 8.25 -47.28125 9.71875 -47.28125 L 33.125 -47.28125 C 34.289062 -47.28125 35.160156 -46.988281 35.734375 -46.40625 C 36.316406 -45.820312 36.609375 -44.992188 36.609375 -43.921875 C 36.609375 -42.804688 36.316406 -41.945312 35.734375 -41.34375 C 35.160156 -40.738281 34.289062 -40.4375 33.125 -40.4375 L 13.75 -40.4375 L 13.75 -27.09375 L 31.71875 -27.09375 C 32.832031 -27.09375 33.691406 -26.800781 34.296875 -26.21875 C 34.898438 -25.632812 35.203125 -24.804688 35.203125 -23.734375 C 35.203125 -22.617188 34.898438 -21.757812 34.296875 -21.15625 C 33.691406 -20.550781 32.832031 -20.25 31.71875 -20.25 L 13.75 -20.25 L 13.75 -4.03125 C 13.75 -0.988281 12.363281 0.53125 9.59375 0.53125 Z M 9.59375 0.53125 "/></g></g></g><g fill="#1b1b1b" fill-opacity="1"><g transform="translate(73.139259, 169.101356)"><g><path d="M 20.515625 0.671875 C 16.804688 0.671875 13.609375 -0.0195312 10.921875 -1.40625 C 8.242188 -2.789062 6.175781 -4.753906 4.71875 -7.296875 C 3.269531 -9.847656 2.546875 -12.867188 2.546875 -16.359375 C 2.546875 -19.753906 3.25 -22.726562 4.65625 -25.28125 C 6.0625 -27.832031 8.003906 -29.832031 10.484375 -31.28125 C 12.972656 -32.738281 15.804688 -33.46875 18.984375 -33.46875 C 21.304688 -33.46875 23.394531 -33.085938 25.25 -32.328125 C 27.101562 -31.566406 28.6875 -30.46875 30 -29.03125 C 31.320312 -27.601562 32.328125 -25.875 33.015625 -23.84375 C 33.710938 -21.8125 34.0625 -19.519531 34.0625 -16.96875 C 34.0625 -16.164062 33.78125 -15.550781 33.21875 -15.125 C 32.664062 -14.695312 31.875 -14.484375 30.84375 -14.484375 L 9.328125 -14.484375 L 9.328125 -19.3125 L 28.171875 -19.3125 L 27.09375 -18.3125 C 27.09375 -20.363281 26.789062 -22.082031 26.1875 -23.46875 C 25.582031 -24.851562 24.707031 -25.914062 23.5625 -26.65625 C 22.425781 -27.394531 21.007812 -27.765625 19.3125 -27.765625 C 17.4375 -27.765625 15.835938 -27.328125 14.515625 -26.453125 C 13.203125 -25.585938 12.195312 -24.359375 11.5 -22.765625 C 10.8125 -21.179688 10.46875 -19.289062 10.46875 -17.09375 L 10.46875 -16.625 C 10.46875 -12.957031 11.328125 -10.21875 13.046875 -8.40625 C 14.765625 -6.601562 17.300781 -5.703125 20.65625 -5.703125 C 21.820312 -5.703125 23.128906 -5.847656 24.578125 -6.140625 C 26.035156 -6.429688 27.410156 -6.929688 28.703125 -7.640625 C 29.640625 -8.179688 30.460938 -8.414062 31.171875 -8.34375 C 31.890625 -8.28125 32.460938 -8.023438 32.890625 -7.578125 C 33.316406 -7.128906 33.570312 -6.582031 33.65625 -5.9375 C 33.75 -5.289062 33.628906 -4.628906 33.296875 -3.953125 C 32.960938 -3.285156 32.394531 -2.707031 31.59375 -2.21875 C 30.019531 -1.226562 28.21875 -0.5 26.1875 -0.03125 C 24.15625 0.4375 22.265625 0.671875 20.515625 0.671875 Z M 20.515625 0.671875 "/></g></g></g><g fill="#1b1b1b" fill-opacity="1"><g transform="translate(109.48126, 169.101356)"><g><path d="M 8.515625 0.46875 C 7.171875 0.46875 6.140625 0.0664062 5.421875 -0.734375 C 4.710938 -1.535156 4.359375 -2.65625 4.359375 -4.09375 L 4.359375 -28.703125 C 4.359375 -30.179688 4.710938 -31.3125 5.421875 -32.09375 C 6.140625 -32.875 7.171875 -33.265625 8.515625 -33.265625 C 9.859375 -33.265625 10.894531 -32.875 11.625 -32.09375 C 12.363281 -31.3125 12.734375 -30.179688 12.734375 -28.703125 L 12.734375 -4.09375 C 12.734375 -2.65625 12.375 -1.535156 11.65625 -0.734375 C 10.945312 0.0664062 9.898438 0.46875 8.515625 0.46875 Z M 8.515625 -39.5 C 6.953125 -39.5 5.734375 -39.890625 4.859375 -40.671875 C 3.984375 -41.453125 3.546875 -42.535156 3.546875 -43.921875 C 3.546875 -45.359375 3.984375 -46.457031 4.859375 -47.21875 C 5.734375 -47.976562 6.953125 -48.359375 8.515625 -48.359375 C 10.128906 -48.359375 11.359375 -47.976562 12.203125 -47.21875 C 13.054688 -46.457031 13.484375 -45.359375 13.484375 -43.921875 C 13.484375 -42.535156 13.054688 -41.453125 12.203125 -40.671875 C 11.359375 -39.890625 10.128906 -39.5 8.515625 -39.5 Z M 8.515625 -39.5 "/></g></g></g><g fill="#1b1b1b" fill-opacity="1"><g transform="translate(126.579428, 169.101356)"><g><path d="M 8.515625 0.53125 C 7.171875 0.53125 6.140625 0.164062 5.421875 -0.5625 C 4.710938 -1.300781 4.359375 -2.363281 4.359375 -3.75 L 4.359375 -29.109375 C 4.359375 -30.492188 4.710938 -31.539062 5.421875 -32.25 C 6.140625 -32.96875 7.148438 -33.328125 8.453125 -33.328125 C 9.742188 -33.328125 10.75 -32.96875 11.46875 -32.25 C 12.1875 -31.539062 12.546875 -30.492188 12.546875 -29.109375 L 12.546875 -24.546875 L 11.796875 -26.21875 C 12.785156 -28.59375 14.316406 -30.394531 16.390625 -31.625 C 18.472656 -32.851562 20.832031 -33.46875 23.46875 -33.46875 C 26.101562 -33.46875 28.269531 -32.972656 29.96875 -31.984375 C 31.675781 -31.003906 32.953125 -29.519531 33.796875 -27.53125 C 34.648438 -25.539062 35.078125 -23.023438 35.078125 -19.984375 L 35.078125 -3.75 C 35.078125 -2.363281 34.71875 -1.300781 34 -0.5625 C 33.28125 0.164062 32.253906 0.53125 30.921875 0.53125 C 29.578125 0.53125 28.535156 0.164062 27.796875 -0.5625 C 27.054688 -1.300781 26.6875 -2.363281 26.6875 -3.75 L 26.6875 -19.578125 C 26.6875 -22.128906 26.207031 -23.984375 25.25 -25.140625 C 24.289062 -26.304688 22.804688 -26.890625 20.796875 -26.890625 C 18.328125 -26.890625 16.363281 -26.117188 14.90625 -24.578125 C 13.457031 -23.035156 12.734375 -20.988281 12.734375 -18.4375 L 12.734375 -3.75 C 12.734375 -0.894531 11.328125 0.53125 8.515625 0.53125 Z M 8.515625 0.53125 "/></g></g></g><g fill="#1b1b1b" fill-opacity="1"><g transform="translate(165.804643, 169.101356)"><g><path d="M 8.515625 0.53125 C 7.171875 0.53125 6.140625 0.164062 5.421875 -0.5625 C 4.710938 -1.300781 4.359375 -2.363281 4.359375 -3.75 L 4.359375 -43.59375 C 4.359375 -44.976562 4.710938 -46.023438 5.421875 -46.734375 C 6.140625 -47.453125 7.171875 -47.8125 8.515625 -47.8125 C 9.859375 -47.8125 10.894531 -47.453125 11.625 -46.734375 C 12.363281 -46.023438 12.734375 -44.976562 12.734375 -43.59375 L 12.734375 -18.84375 L 12.875 -18.84375 L 23.9375 -30.515625 C 24.832031 -31.410156 25.613281 -32.101562 26.28125 -32.59375 C 26.957031 -33.082031 27.875 -33.328125 29.03125 -33.328125 C 30.195312 -33.328125 31.082031 -33.023438 31.6875 -32.421875 C 32.289062 -31.816406 32.59375 -31.085938 32.59375 -30.234375 C 32.59375 -29.390625 32.191406 -28.546875 31.390625 -27.703125 L 19.71875 -15.359375 L 19.71875 -18.84375 L 32.53125 -5.03125 C 33.332031 -4.175781 33.695312 -3.3125 33.625 -2.4375 C 33.5625 -1.570312 33.191406 -0.859375 32.515625 -0.296875 C 31.847656 0.253906 31.003906 0.53125 29.984375 0.53125 C 28.722656 0.53125 27.722656 0.285156 26.984375 -0.203125 C 26.253906 -0.691406 25.441406 -1.429688 24.546875 -2.421875 L 12.875 -14.625 L 12.734375 -14.625 L 12.734375 -3.75 C 12.734375 -0.894531 11.328125 0.53125 8.515625 0.53125 Z M 8.515625 0.53125 "/></g></g></g><g fill="#1b1b1b" fill-opacity="1"><g transform="translate(201.744336, 169.101356)"><g><path d="M 15.5625 0.671875 C 11.851562 0.671875 9.054688 -0.390625 7.171875 -2.515625 C 5.296875 -4.640625 4.359375 -7.757812 4.359375 -11.875 L 4.359375 -43.59375 C 4.359375 -44.976562 4.710938 -46.023438 5.421875 -46.734375 C 6.140625 -47.453125 7.171875 -47.8125 8.515625 -47.8125 C 9.859375 -47.8125 10.894531 -47.453125 11.625 -46.734375 C 12.363281 -46.023438 12.734375 -44.976562 12.734375 -43.59375 L 12.734375 -12.265625 C 12.734375 -10.210938 13.171875 -8.691406 14.046875 -7.703125 C 14.921875 -6.722656 16.160156 -6.234375 17.765625 -6.234375 C 18.128906 -6.234375 18.46875 -6.242188 18.78125 -6.265625 C 19.09375 -6.285156 19.40625 -6.320312 19.71875 -6.375 C 20.34375 -6.457031 20.765625 -6.285156 20.984375 -5.859375 C 21.210938 -5.441406 21.328125 -4.582031 21.328125 -3.28125 C 21.328125 -2.164062 21.101562 -1.296875 20.65625 -0.671875 C 20.207031 -0.046875 19.46875 0.332031 18.4375 0.46875 C 17.988281 0.507812 17.519531 0.550781 17.03125 0.59375 C 16.539062 0.644531 16.050781 0.671875 15.5625 0.671875 Z M 15.5625 0.671875 "/></g></g></g><g fill="#1b1b1b" fill-opacity="1"><g transform="translate(223.13381, 169.101356)"><g><path d="M 15.15625 0.671875 C 12.789062 0.671875 10.675781 0.210938 8.8125 -0.703125 C 6.957031 -1.617188 5.503906 -2.859375 4.453125 -4.421875 C 3.410156 -5.984375 2.890625 -7.75 2.890625 -9.71875 C 2.890625 -12.132812 3.515625 -14.046875 4.765625 -15.453125 C 6.015625 -16.867188 8.046875 -17.890625 10.859375 -18.515625 C 13.679688 -19.140625 17.460938 -19.453125 22.203125 -19.453125 L 25.546875 -19.453125 L 25.546875 -14.625 L 22.265625 -14.625 C 19.492188 -14.625 17.28125 -14.488281 15.625 -14.21875 C 13.96875 -13.945312 12.789062 -13.488281 12.09375 -12.84375 C 11.40625 -12.195312 11.0625 -11.289062 11.0625 -10.125 C 11.0625 -8.644531 11.578125 -7.4375 12.609375 -6.5 C 13.640625 -5.5625 15.070312 -5.09375 16.90625 -5.09375 C 18.375 -5.09375 19.675781 -5.4375 20.8125 -6.125 C 21.957031 -6.820312 22.863281 -7.773438 23.53125 -8.984375 C 24.207031 -10.191406 24.546875 -11.578125 24.546875 -13.140625 L 24.546875 -20.859375 C 24.546875 -23.085938 24.050781 -24.691406 23.0625 -25.671875 C 22.082031 -26.660156 20.429688 -27.15625 18.109375 -27.15625 C 16.804688 -27.15625 15.40625 -27 13.90625 -26.6875 C 12.414062 -26.375 10.84375 -25.835938 9.1875 -25.078125 C 8.332031 -24.679688 7.582031 -24.570312 6.9375 -24.75 C 6.289062 -24.925781 5.785156 -25.289062 5.421875 -25.84375 C 5.066406 -26.40625 4.890625 -27.019531 4.890625 -27.6875 C 4.890625 -28.363281 5.066406 -29.023438 5.421875 -29.671875 C 5.785156 -30.316406 6.394531 -30.796875 7.25 -31.109375 C 9.300781 -31.960938 11.273438 -32.566406 13.171875 -32.921875 C 15.078125 -33.285156 16.8125 -33.46875 18.375 -33.46875 C 21.59375 -33.46875 24.238281 -32.972656 26.3125 -31.984375 C 28.394531 -31.003906 29.953125 -29.519531 30.984375 -27.53125 C 32.015625 -25.539062 32.53125 -22.976562 32.53125 -19.84375 L 32.53125 -3.75 C 32.53125 -2.363281 32.191406 -1.300781 31.515625 -0.5625 C 30.847656 0.164062 29.890625 0.53125 28.640625 0.53125 C 27.390625 0.53125 26.414062 0.164062 25.71875 -0.5625 C 25.019531 -1.300781 24.671875 -2.363281 24.671875 -3.75 L 24.671875 -6.96875 L 25.21875 -6.96875 C 24.90625 -5.40625 24.289062 -4.050781 23.375 -2.90625 C 22.457031 -1.769531 21.304688 -0.890625 19.921875 -0.265625 C 18.535156 0.359375 16.945312 0.671875 15.15625 0.671875 Z M 15.15625 0.671875 "/></g></g></g><g fill="#1b1b1b" fill-opacity="1"><g transform="translate(259.811064, 169.101356)"><g><path d="M 8.515625 0.53125 C 7.171875 0.53125 6.140625 0.164062 5.421875 -0.5625 C 4.710938 -1.300781 4.359375 -2.363281 4.359375 -3.75 L 4.359375 -29.109375 C 4.359375 -30.492188 4.710938 -31.539062 5.421875 -32.25 C 6.140625 -32.96875 7.148438 -33.328125 8.453125 -33.328125 C 9.742188 -33.328125 10.75 -32.96875 11.46875 -32.25 C 12.1875 -31.539062 12.546875 -30.492188 12.546875 -29.109375 L 12.546875 -24.546875 L 11.796875 -26.21875 C 12.785156 -28.59375 14.316406 -30.394531 16.390625 -31.625 C 18.472656 -32.851562 20.832031 -33.46875 23.46875 -33.46875 C 26.101562 -33.46875 28.269531 -32.972656 29.96875 -31.984375 C 31.675781 -31.003906 32.953125 -29.519531 33.796875 -27.53125 C 34.648438 -25.539062 35.078125 -23.023438 35.078125 -19.984375 L 35.078125 -3.75 C 35.078125 -2.363281 34.71875 -1.300781 34 -0.5625 C 33.28125 0.164062 32.253906 0.53125 30.921875 0.53125 C 29.578125 0.53125 28.535156 0.164062 27.796875 -0.5625 C 27.054688 -1.300781 26.6875 -2.363281 26.6875 -3.75 L 26.6875 -19.578125 C 26.6875 -22.128906 26.207031 -23.984375 25.25 -25.140625 C 24.289062 -26.304688 22.804688 -26.890625 20.796875 -26.890625 C 18.328125 -26.890625 16.363281 -26.117188 14.90625 -24.578125 C 13.457031 -23.035156 12.734375 -20.988281 12.734375 -18.4375 L 12.734375 -3.75 C 12.734375 -0.894531 11.328125 0.53125 8.515625 0.53125 Z M 8.515625 0.53125 "/></g></g></g><g fill="#1b1b1b" fill-opacity="1"><g transform="translate(299.036279, 169.101356)"><g><path d="M 19.65625 12.734375 C 17.238281 12.734375 14.898438 12.507812 12.640625 12.0625 C 10.378906 11.625 8.332031 10.9375 6.5 10 C 5.65625 9.550781 5.085938 9.007812 4.796875 8.375 C 4.503906 7.75 4.410156 7.113281 4.515625 6.46875 C 4.628906 5.820312 4.898438 5.253906 5.328125 4.765625 C 5.753906 4.273438 6.28125 3.9375 6.90625 3.75 C 7.53125 3.570312 8.179688 3.664062 8.859375 4.03125 C 10.816406 5.007812 12.675781 5.644531 14.4375 5.9375 C 16.207031 6.226562 17.722656 6.375 18.984375 6.375 C 21.972656 6.375 24.21875 5.644531 25.71875 4.1875 C 27.21875 2.738281 27.96875 0.582031 27.96875 -2.28125 L 27.96875 -8.3125 L 28.5625 -8.3125 C 27.894531 -6.03125 26.5 -4.207031 24.375 -2.84375 C 22.25 -1.488281 19.847656 -0.8125 17.171875 -0.8125 C 14.210938 -0.8125 11.640625 -1.488281 9.453125 -2.84375 C 7.265625 -4.207031 5.566406 -6.117188 4.359375 -8.578125 C 3.148438 -11.035156 2.546875 -13.898438 2.546875 -17.171875 C 2.546875 -19.628906 2.890625 -21.851562 3.578125 -23.84375 C 4.273438 -25.832031 5.257812 -27.539062 6.53125 -28.96875 C 7.8125 -30.394531 9.351562 -31.5 11.15625 -32.28125 C 12.96875 -33.070312 14.972656 -33.46875 17.171875 -33.46875 C 19.941406 -33.46875 22.363281 -32.785156 24.4375 -31.421875 C 26.519531 -30.054688 27.875 -28.253906 28.5 -26.015625 L 27.828125 -24.34375 L 27.828125 -29.109375 C 27.828125 -30.492188 28.195312 -31.539062 28.9375 -32.25 C 29.675781 -32.96875 30.691406 -33.328125 31.984375 -33.328125 C 33.328125 -33.328125 34.351562 -32.96875 35.0625 -32.25 C 35.78125 -31.539062 36.140625 -30.492188 36.140625 -29.109375 L 36.140625 -3.28125 C 36.140625 2.03125 34.734375 6.023438 31.921875 8.703125 C 29.109375 11.390625 25.019531 12.734375 19.65625 12.734375 Z M 19.453125 -7.171875 C 21.191406 -7.171875 22.6875 -7.570312 23.9375 -8.375 C 25.1875 -9.1875 26.15625 -10.335938 26.84375 -11.828125 C 27.539062 -13.328125 27.890625 -15.109375 27.890625 -17.171875 C 27.890625 -20.253906 27.128906 -22.675781 25.609375 -24.4375 C 24.097656 -26.207031 22.046875 -27.09375 19.453125 -27.09375 C 17.703125 -27.09375 16.203125 -26.6875 14.953125 -25.875 C 13.703125 -25.070312 12.726562 -23.929688 12.03125 -22.453125 C 11.34375 -20.984375 11 -19.222656 11 -17.171875 C 11 -14.085938 11.757812 -11.648438 13.28125 -9.859375 C 14.800781 -8.066406 16.859375 -7.171875 19.453125 -7.171875 Z M 19.453125 -7.171875 "/></g></g></g><path fill="#020202" d="M 314.226562 68.816406 L 314.164062 87.46875 C 314.164062 87.46875 308.609375 86.808594 307.347656 90.734375 C 306.089844 94.664062 311.128906 95.203125 313.527344 92.925781 C 315.929688 90.644531 315.386719 87.585938 315.386719 87.585938 L 315.386719 75.710938 L 328.722656 73.132812 L 328.675781 87.46875 C 328.675781 87.46875 323.117188 86.808594 321.859375 90.734375 C 320.597656 94.664062 325.636719 95.203125 328.039062 92.925781 C 330.4375 90.644531 329.898438 87.585938 329.898438 87.585938 L 329.898438 75.710938 C 329.898438 71.734375 329.867188 70.285156 329.867188 68.816406 Z M 314.226562 68.816406 " fill-opacity="1" fill-rule="nonzero"/><g clip-path="url(#52cef128c5)"><path fill="#000000" d="M 351.894531 73.273438 C 343.011719 73.449219 332.101562 76.195312 320.617188 84.867188 C 292.984375 105.726562 255.757812 108.417969 214.710938 84.214844 C 172.984375 59.609375 136.5 87.242188 136.5 87.242188 C 136.304688 87.390625 136.1875 87.589844 136.15625 87.835938 C 136.121094 88.082031 136.179688 88.300781 136.332031 88.5 C 136.480469 88.695312 136.679688 88.8125 136.925781 88.84375 C 137.167969 88.878906 137.390625 88.820312 137.589844 88.671875 C 137.589844 88.671875 172.96875 61.6875 213.796875 85.761719 C 255.304688 110.234375 293.503906 107.582031 321.699219 86.296875 C 335.476562 75.894531 348.199219 74.324219 357.515625 75.304688 C 366.832031 76.289062 372.660156 79.820312 372.660156 79.820312 C 372.871094 79.949219 373.097656 79.980469 373.339844 79.921875 C 373.582031 79.863281 373.765625 79.726562 373.894531 79.515625 C 374.023438 79.304688 374.054688 79.078125 373.996094 78.835938 C 373.9375 78.597656 373.800781 78.410156 373.589844 78.285156 C 373.589844 78.285156 367.390625 74.542969 357.703125 73.519531 C 355.886719 73.328125 353.945312 73.234375 351.894531 73.273438 Z M 351.894531 73.273438 " fill-opacity="1" fill-rule="nonzero"/></g><g clip-path="url(#e0329bebfc)"><path fill="#000000" d="M 351.894531 80.851562 C 343.011719 81.027344 332.101562 83.769531 320.617188 92.441406 C 292.984375 113.304688 255.757812 115.992188 214.710938 91.792969 C 172.984375 67.1875 136.5 94.816406 136.5 94.816406 C 136.304688 94.96875 136.1875 95.164062 136.15625 95.410156 C 136.121094 95.65625 136.179688 95.878906 136.332031 96.074219 C 136.480469 96.273438 136.679688 96.386719 136.925781 96.421875 C 137.167969 96.453125 137.390625 96.398438 137.589844 96.246094 C 137.589844 96.246094 172.96875 69.261719 213.796875 93.335938 C 255.304688 117.8125 293.503906 115.160156 321.699219 93.875 C 335.476562 83.472656 348.199219 81.902344 357.515625 82.882812 C 366.832031 83.863281 372.660156 87.394531 372.660156 87.394531 C 372.871094 87.523438 373.097656 87.558594 373.339844 87.5 C 373.582031 87.441406 373.765625 87.304688 373.894531 87.09375 C 374.023438 86.878906 374.054688 86.652344 373.996094 86.414062 C 373.9375 86.171875 373.800781 85.988281 373.589844 85.859375 C 373.589844 85.859375 367.390625 82.117188 357.703125 81.097656 C 355.886719 80.90625 353.945312 80.808594 351.894531 80.851562 Z M 351.894531 80.851562 " fill-opacity="1" fill-rule="nonzero"/></g><g clip-path="url(#f1b74ebe73)"><path fill="#000000" d="M 351.894531 89.542969 C 343.011719 89.722656 332.101562 92.464844 320.617188 101.136719 C 292.984375 121.996094 255.757812 124.6875 214.710938 100.484375 C 172.984375 75.882812 136.5 103.511719 136.5 103.511719 C 136.304688 103.660156 136.1875 103.859375 136.15625 104.105469 C 136.121094 104.351562 136.179688 104.570312 136.332031 104.769531 C 136.480469 104.964844 136.679688 105.082031 136.925781 105.113281 C 137.167969 105.148438 137.390625 105.089844 137.589844 104.941406 C 137.589844 104.941406 172.96875 77.957031 213.796875 102.03125 C 255.304688 126.503906 293.503906 123.855469 321.699219 102.566406 C 335.476562 92.164062 348.199219 90.59375 357.515625 91.578125 C 366.832031 92.558594 372.660156 96.089844 372.660156 96.089844 C 372.871094 96.21875 373.097656 96.253906 373.339844 96.191406 C 373.582031 96.132812 373.765625 96 373.894531 95.785156 C 374.023438 95.574219 374.054688 95.347656 373.996094 95.105469 C 373.9375 94.867188 373.800781 94.683594 373.589844 94.554688 C 373.589844 94.554688 367.390625 90.8125 357.703125 89.792969 C 355.886719 89.601562 353.945312 89.503906 351.894531 89.542969 Z M 351.894531 89.542969 " fill-opacity="1" fill-rule="nonzero"/></g><g clip-path="url(#076a5f051e)"><path fill="#000000" d="M 351.894531 96.890625 C 343.011719 97.066406 332.101562 99.8125 320.617188 108.480469 C 292.984375 129.34375 255.757812 132.035156 214.710938 107.832031 C 172.984375 83.226562 136.5 110.855469 136.5 110.855469 C 136.304688 111.007812 136.1875 111.207031 136.15625 111.449219 C 136.121094 111.695312 136.179688 111.917969 136.332031 112.113281 C 136.480469 112.3125 136.679688 112.425781 136.925781 112.460938 C 137.167969 112.496094 137.390625 112.4375 137.589844 112.285156 C 137.589844 112.285156 172.96875 85.304688 213.796875 109.375 C 255.304688 133.851562 293.503906 131.199219 321.699219 109.914062 C 335.476562 99.511719 348.199219 97.941406 357.515625 98.921875 C 366.832031 99.902344 372.660156 103.433594 372.660156 103.433594 C 372.871094 103.5625 373.097656 103.597656 373.339844 103.539062 C 373.582031 103.480469 373.765625 103.34375 373.894531 103.132812 C 374.023438 102.917969 374.058594 102.695312 373.996094 102.453125 C 373.9375 102.210938 373.800781 102.027344 373.589844 101.898438 C 373.589844 101.898438 367.390625 98.160156 357.703125 97.136719 C 355.886719 96.945312 353.945312 96.851562 351.894531 96.890625 Z M 351.894531 96.890625 " fill-opacity="1" fill-rule="nonzero"/></g><g clip-path="url(#1ea0d36add)"><path fill="#020202" d="M 176.84375 76.144531 C 176.84375 76.144531 169.96875 75.328125 168.410156 80.1875 C 166.847656 85.050781 173.085938 85.71875 176.054688 82.898438 C 179.023438 80.078125 178.355469 76.292969 178.355469 76.292969 L 178.355469 61.601562 C 178.355469 61.601562 182.773438 63.34375 183.367188 67.648438 C 183.960938 71.953125 182.363281 74.4375 182.363281 74.4375 C 182.363281 74.4375 183.71875 73.847656 184.074219 73.25 C 185.28125 71.21875 185.257812 68.578125 184.851562 66.203125 C 184.058594 61.53125 179.65625 59.078125 178.726562 57.148438 C 177.800781 55.21875 177.984375 53.066406 177.984375 53.066406 L 176.917969 53.066406 Z M 176.84375 76.144531 " fill-opacity="1" fill-rule="nonzero"/></g><path fill="#020202" d="M 189.84375 99.570312 C 189.84375 99.570312 184.464844 98.933594 183.246094 102.734375 C 182.027344 106.535156 186.902344 107.058594 189.226562 104.851562 C 191.546875 102.648438 191.027344 99.6875 191.027344 99.6875 L 191.027344 88.195312 C 191.027344 88.195312 194.480469 89.558594 194.945312 92.925781 C 195.410156 96.292969 194.160156 98.234375 194.160156 98.234375 C 194.160156 98.234375 195.21875 97.773438 195.496094 97.308594 C 196.441406 95.71875 196.421875 93.652344 196.105469 91.792969 C 195.484375 88.140625 192.042969 86.222656 191.316406 84.714844 C 190.589844 83.203125 190.734375 81.519531 190.734375 81.519531 L 189.898438 81.519531 Z M 189.84375 99.570312 " fill-opacity="1" fill-rule="nonzero"/><path fill="#020202" d="M 262.722656 100.5 C 262.722656 100.5 255.847656 99.683594 254.289062 104.546875 C 252.730469 109.40625 258.96875 110.074219 261.9375 107.253906 C 264.90625 104.433594 264.238281 100.648438 264.238281 100.648438 L 264.238281 85.957031 C 264.238281 85.957031 268.65625 87.703125 269.25 92.003906 C 269.84375 96.308594 268.246094 98.792969 268.246094 98.792969 C 268.246094 98.792969 269.601562 98.203125 269.953125 97.609375 C 271.164062 95.574219 271.136719 92.933594 270.734375 90.558594 C 269.941406 85.886719 265.535156 83.433594 264.609375 81.503906 C 263.679688 79.574219 263.867188 77.425781 263.867188 77.425781 L 262.796875 77.425781 Z M 262.722656 100.5 " fill-opacity="1" fill-rule="nonzero"/><path fill="#020202" d="M 283.28125 114.929688 C 283.28125 114.929688 277.90625 114.292969 276.6875 118.09375 C 275.46875 121.894531 280.34375 122.417969 282.667969 120.214844 C 284.988281 118.007812 284.46875 115.046875 284.46875 115.046875 L 284.46875 103.554688 C 284.46875 103.554688 287.921875 104.917969 288.386719 108.285156 C 288.851562 111.652344 287.601562 113.597656 287.601562 113.597656 C 287.601562 113.597656 288.660156 113.132812 288.9375 112.667969 C 289.882812 111.078125 289.863281 109.011719 289.546875 107.152344 C 288.925781 103.5 285.484375 101.582031 284.757812 100.074219 C 284.03125 98.5625 284.175781 96.882812 284.175781 96.882812 L 283.339844 96.882812 Z M 283.28125 114.929688 " fill-opacity="1" fill-rule="nonzero"/><path fill="#020202" d="M 349.214844 102.613281 C 349.214844 102.613281 343.839844 101.976562 342.621094 105.777344 C 341.402344 109.578125 346.277344 110.101562 348.601562 107.894531 C 350.921875 105.691406 350.402344 102.730469 350.402344 102.730469 L 350.402344 91.238281 C 350.402344 91.238281 353.855469 92.601562 354.320312 95.96875 C 354.785156 99.335938 353.535156 101.277344 353.535156 101.277344 C 353.535156 101.277344 354.59375 100.816406 354.871094 100.351562 C 355.816406 98.761719 355.796875 96.695312 355.480469 94.835938 C 354.859375 91.183594 351.417969 89.265625 350.691406 87.753906 C 349.964844 86.246094 350.109375 84.5625 350.109375 84.5625 L 349.273438 84.5625 Z M 349.214844 102.613281 " fill-opacity="1" fill-rule="nonzero"/><path fill="#020202" d="M 227.714844 104.503906 L 227.652344 123.152344 C 227.652344 123.152344 222.097656 122.496094 220.835938 126.421875 C 219.578125 130.351562 224.617188 130.890625 227.015625 128.613281 C 229.417969 126.332031 228.875 123.273438 228.875 123.273438 L 228.875 111.398438 L 242.210938 108.820312 L 242.164062 123.152344 C 242.164062 123.152344 236.605469 122.496094 235.347656 126.421875 C 234.085938 130.351562 239.128906 130.890625 241.527344 128.613281 C 243.925781 126.332031 243.386719 123.273438 243.386719 123.273438 L 243.386719 111.398438 C 243.386719 107.417969 243.355469 105.96875 243.355469 104.503906 Z M 227.714844 104.503906 " fill-opacity="1" fill-rule="nonzero"/><path fill="#020202" d="M 154.429688 91.773438 L 154.371094 110.425781 C 154.371094 110.425781 148.8125 109.765625 147.554688 113.695312 C 146.292969 117.621094 151.332031 118.164062 153.734375 115.882812 C 156.132812 113.605469 155.59375 110.546875 155.59375 110.546875 L 155.59375 98.671875 L 168.925781 96.09375 L 168.878906 110.425781 C 168.878906 110.425781 163.324219 109.765625 162.0625 113.695312 C 160.804688 117.621094 165.84375 118.164062 168.242188 115.882812 C 170.644531 113.605469 170.105469 110.546875 170.105469 110.546875 L 170.105469 98.671875 C 170.105469 94.691406 170.074219 93.242188 170.074219 91.773438 Z M 154.429688 91.773438 " fill-opacity="1" fill-rule="nonzero"/></svg>